<svg id="Capa_1" enable-background="new 0 0 514.031 514.031" height="512" viewBox="0 0 514.031 514.031" width="512" xmlns="http://www.w3.org/2000/svg"><path d="m473.447 343.441-24.366-12.962c-6.552-11.665-14.612-22.486-23.979-32.192-2.877-2.979-7.625-3.063-10.605-.188-2.98 2.877-3.064 7.625-.188 10.605 8.96 9.282 16.594 19.688 22.691 30.926.702 1.295 1.77 2.354 3.07 3.045l26.332 14.008c2.44 1.299 4.229 3.47 5.037 6.113s.538 5.443-.761 7.884c-1.298 2.44-3.469 4.229-6.113 5.037-2.643.809-5.443.537-7.884-.761l-26.332-14.008c-1.301-.691-2.774-.981-4.241-.845-27.864 2.68-55.646-2.847-80.34-15.983l-29.92-15.918c-15.152-8.061-27.793-19.788-36.961-34.165 4.422-2.562 8.351-5.884 11.591-9.8 7.889 13.02 19.024 23.597 32.416 30.721l29.92 15.917c8.096 4.308 16.658 7.739 25.448 10.201 1.664.466 3.327.69 4.955.69 6.369 0 12.203-3.446 15.386-9.432 3.998-7.515 2.343-16.257-4.118-21.752-6.949-5.911-14.581-11.094-22.682-15.403l-29.92-15.917c-5.502-2.927-11.275-5.211-17.222-6.839 7.827-1.558 15.487-3.94 22.872-7.128.476.242.943.483 1.395.724l29.92 15.917c3.998 2.127 8.057 4.56 12.063 7.231 1.279.853 2.724 1.261 4.154 1.261 2.423 0 4.802-1.173 6.247-3.341 2.298-3.446 1.367-8.103-2.08-10.4-4.417-2.945-8.905-5.635-13.339-7.993l-21.957-11.681 21.957-11.681c26.631-14.167 48.438-35.499 63.19-61.783l24.365-12.962c5.978-3.18 10.359-8.497 12.338-14.973 1.978-6.477 1.316-13.334-1.864-19.312s-8.498-10.359-14.974-12.338-13.335-1.316-19.312 1.864l-24.365 12.961c-13.07-1.064-26.283-.475-39.307 1.756-4.083.699-6.826 4.576-6.127 8.658.699 4.083 4.575 6.829 8.658 6.127 12.472-2.136 25.126-2.608 37.613-1.407 1.465.139 2.941-.152 4.241-.845l26.333-14.008c2.439-1.299 5.239-1.571 7.884-.761 2.644.808 4.815 2.597 6.114 5.037 1.298 2.44 1.568 5.24.761 7.884s-2.597 4.814-5.037 6.113l-26.332 14.008c-1.3.691-2.368 1.75-3.07 3.045-13.35 24.605-33.459 44.555-58.153 57.692l-29.92 15.917c-15.07 8.017-31.77 11.962-48.727 11.579.051-.852.084-1.708.084-2.573 0-4.354-.658-8.557-1.873-12.519 1.335.063 2.668.094 4 .094 13.785 0 27.292-3.345 39.471-9.824l29.92-15.917c8.101-4.31 15.732-9.492 22.681-15.403 6.462-5.495 8.117-14.237 4.119-21.752-3.998-7.516-12.172-11.023-20.341-8.741-8.79 2.462-17.352 5.894-25.448 10.201l-29.92 15.917c-13.392 7.125-24.526 17.702-32.416 30.721-3.243-3.919-7.176-7.244-11.603-9.807 9.171-14.376 21.821-26.097 36.973-34.158l29.92-15.917c4.224-2.247 8.708-4.336 13.327-6.21 3.838-1.558 5.688-5.932 4.13-9.77-1.556-3.839-5.931-5.685-9.769-4.131-5.097 2.067-10.053 4.378-14.733 6.867l-29.92 15.918c-.539.287-1.064.593-1.597.888.01-.611.027-1.223.027-1.832v-33.891c0-30.165-8.591-59.436-24.867-84.804v-27.591c0-13.978-11.372-25.35-25.35-25.35s-25.35 11.372-25.35 25.35v27.599c-16.276 25.368-24.867 54.639-24.867 84.804v33.891c0 .61.023 1.224.034 1.835-.536-.296-1.063-.604-1.604-.892l-29.921-15.919c-4.548-2.418-9.388-4.68-14.386-6.722-3.835-1.565-8.213.271-9.779 4.107-1.566 3.834.272 8.213 4.107 9.779 4.532 1.851 8.911 3.896 13.014 6.078l29.92 15.918c15.308 8.144 28.056 20.009 37.245 34.577-4.392 2.659-8.261 6.092-11.436 10.099-7.912-13.349-19.216-24.178-32.853-31.433l-29.92-15.917c-8.096-4.308-16.658-7.739-25.448-10.201-8.173-2.287-16.344 1.226-20.341 8.741-3.998 7.515-2.343 16.257 4.118 21.752 6.949 5.911 14.581 11.094 22.682 15.403l29.92 15.917c5.5 2.926 11.272 5.206 17.216 6.834-7.822 1.558-15.479 3.94-22.867 7.131-.475-.242-.942-.482-1.394-.723l-29.92-15.917c-24.697-13.136-44.807-33.085-58.156-57.691-.702-1.295-1.77-2.354-3.07-3.045l-26.332-14.008c-2.44-1.299-4.229-3.47-5.037-6.113s-.538-5.443.761-7.884c1.298-2.44 3.469-4.229 6.113-5.037 2.643-.809 5.443-.538 7.884.761l26.332 14.008c1.301.692 2.772.983 4.241.845 12.607-1.214 25.383-.719 37.971 1.471 4.084.718 7.964-2.023 8.674-6.104.709-4.081-2.023-7.965-6.104-8.674-13.155-2.288-26.5-2.902-39.704-1.826l-24.365-12.962c-5.978-3.181-12.838-3.844-19.313-1.864-6.476 1.979-11.793 6.36-14.973 12.338s-3.842 12.836-1.864 19.312c1.979 6.476 6.36 11.793 12.338 14.973l24.365 12.962c14.752 26.284 36.559 47.616 63.19 61.783l21.957 11.681-21.957 11.681c-26.631 14.167-48.438 35.499-63.19 61.783l-24.365 12.962c-5.978 3.18-10.359 8.497-12.338 14.973-1.978 6.476-1.316 13.334 1.864 19.312s8.498 10.359 14.974 12.338c2.448.748 4.949 1.118 7.438 1.118 4.096 0 8.156-1.004 11.874-2.982l24.365-12.961c30.044 2.456 59.917-3.707 86.548-17.875l29.92-15.918c.542-.288 1.069-.597 1.605-.893-.01.612-.035 1.226-.035 1.836v33.891c0 30.165 8.591 59.436 24.867 84.804v27.599c0 13.978 11.372 25.35 25.35 25.35s25.35-11.372 25.35-25.35v-27.599c16.276-25.368 24.867-54.639 24.867-84.804v-33.891c0-.609-.017-1.221-.027-1.832.533.295 1.058.602 1.597.888l29.92 15.918c26.631 14.167 56.504 20.329 86.548 17.875l24.364 12.961c3.719 1.979 7.778 2.982 11.875 2.982 2.488 0 4.991-.37 7.438-1.118 6.476-1.979 11.793-6.36 14.973-12.338s3.842-12.836 1.864-19.312c-1.977-6.477-6.359-11.794-12.337-14.974zm-143.51-131.128 29.92-15.917c7.145-3.801 14.697-6.828 22.448-8.998.311-.088.596-.127.856-.127 1.147 0 1.82.757 2.198 1.468.464.871.737 2.148-.595 3.281-6.127 5.213-12.858 9.784-20.007 13.587l-29.92 15.917c-7.995 4.253-16.689 6.86-25.648 7.735 5.732-6.938 12.754-12.693 20.748-16.946zm-78.138 130.076c0-9.055 1.782-17.957 5.216-26.276 3.434 8.319 5.216 17.222 5.216 26.276v33.891c0 8.095-.874 16.185-2.598 24.045-.375 1.707-1.63 2.065-2.618 2.065s-2.244-.358-2.618-2.065c-1.724-7.86-2.598-15.95-2.598-24.045zm112.958-33.965c7.148 3.803 13.88 8.374 20.008 13.587 1.332 1.133 1.058 2.41.594 3.281s-1.373 1.814-3.054 1.341c-7.751-2.17-15.303-5.197-22.448-8.998l-29.92-15.917c-7.994-4.253-15.016-10.008-20.748-16.946 8.958.875 17.654 3.482 25.648 7.735zm-102.525-136.781c0 9.055-1.782 17.957-5.216 26.276-3.434-8.319-5.216-17.222-5.216-26.276v-33.891c0-8.095.874-16.185 2.598-24.045.375-1.707 1.63-2.065 2.618-2.065s2.244.358 2.618 2.065c1.724 7.86 2.598 15.95 2.598 24.045zm-39.645 12.309c-.514-4.102-.787-8.229-.787-12.309v-33.891c0-27.973 8.168-55.095 23.621-78.436.813-1.229 1.246-2.668 1.246-4.141v-29.825c0-5.707 4.643-10.35 10.35-10.35s10.35 4.643 10.35 10.35v29.826c0 1.473.434 2.912 1.246 4.141 15.453 23.341 23.621 50.463 23.621 78.436v33.891c0 4.081-.273 8.207-.787 12.309-8.546 6.775-16.057 14.747-22.351 23.703 5.344-11.249 8.138-23.504 8.138-36.012v-33.891c0-9.173-.991-18.345-2.947-27.258-1.817-8.286-8.757-13.853-17.27-13.853s-15.453 5.566-17.27 13.853c-1.956 8.913-2.947 18.085-2.947 27.258v33.891c0 12.505 2.793 24.759 8.135 36.007-6.293-8.956-13.802-16.924-22.348-23.699zm34.929 45.295c15.312 0 27.769 12.457 27.769 27.769s-12.457 27.769-27.769 27.769-27.769-12.457-27.769-27.769 12.457-27.769 27.769-27.769zm-108.242-23.64c-7.148-3.803-13.88-8.374-20.008-13.587-1.332-1.133-1.058-2.41-.594-3.281.378-.711 1.05-1.468 2.198-1.468.26 0 .545.039.856.127 7.751 2.17 15.303 5.197 22.448 8.998l29.92 15.917c7.994 4.253 15.016 10.008 20.748 16.946-8.958-.875-17.654-3.482-25.648-7.735zm48.91 122.596-29.92 15.918c-24.695 13.137-52.478 18.665-80.34 15.983-1.462-.136-2.94.153-4.241.845l-26.333 14.008c-2.441 1.298-5.241 1.569-7.884.761-2.644-.808-4.815-2.597-6.114-5.037-1.298-2.44-1.568-5.24-.761-7.884s2.597-4.814 5.037-6.113l26.332-14.008c1.3-.691 2.368-1.75 3.07-3.045 13.35-24.605 33.459-44.555 58.153-57.692l29.92-15.917c15.386-8.185 32.432-12.123 49.725-11.558-.05.845-.083 1.694-.083 2.552 0 4.375.663 8.596 1.889 12.573-15.512-.911-30.832 2.412-44.486 9.676l-29.92 15.917c-8.101 4.31-15.732 9.492-22.681 15.403-6.462 5.495-8.117 14.237-4.119 21.752 3.184 5.985 9.016 9.432 15.386 9.432 1.628 0 3.292-.226 4.956-.69 8.79-2.462 17.352-5.894 25.448-10.201l29.92-15.917c13.637-7.255 24.941-18.084 32.853-31.433 3.176 4.007 7.045 7.44 11.436 10.099-9.187 14.567-21.935 26.433-37.243 34.576zm6.658-43.432c-5.732 6.938-12.754 12.693-20.748 16.946l-29.92 15.917c-7.145 3.801-14.697 6.828-22.448 8.998-1.683.475-2.59-.468-3.054-1.341-.464-.871-.737-2.148.595-3.281 6.127-5.213 12.858-9.784 20.007-13.587l29.92-15.917c7.995-4.252 16.69-6.86 25.648-7.735zm87.39 57.618v33.891c0 27.973-8.168 55.095-23.621 78.436-.813 1.229-1.246 2.668-1.246 4.141v29.826c0 5.707-4.643 10.35-10.35 10.35s-10.35-4.643-10.35-10.35v-29.826c0-1.473-.434-2.912-1.246-4.141-15.453-23.341-23.621-50.463-23.621-78.436v-33.891c0-4.082.273-8.208.788-12.31 8.546-6.774 16.055-14.743 22.348-23.697-5.343 11.248-8.135 23.501-8.135 36.006v33.891c0 9.173.991 18.345 2.947 27.258 1.817 8.286 8.757 13.853 17.27 13.853s15.453-5.566 17.27-13.853c1.956-8.913 2.947-18.085 2.947-27.258v-33.891c0-12.507-2.794-24.763-8.138-36.011 6.294 8.956 13.804 16.927 22.35 23.702.514 4.102.787 8.229.787 12.31z"/></svg>